<svg clip-rule="evenodd" fill-rule="evenodd" stroke-linejoin="round" stroke-miterlimit="2" viewBox="0 0 512 512" xmlns="http://www.w3.org/2000/svg" xmlns:xlink="http://www.w3.org/1999/xlink"><linearGradient id="a"><stop offset="0" stop-color="#2dd4df"/><stop offset="1" stop-color="#1fb8e2"/></linearGradient><linearGradient id="b" gradientUnits="userSpaceOnUse" x1=".000014" x2="179.090014" xlink:href="#a" y1="111.041" y2="111.041"/><linearGradient id="c" gradientUnits="userSpaceOnUse" x1=".000352" x2="55.434252" xlink:href="#a" y1="27.9178" y2="27.9178"/><g transform="translate(0 11)"><g fill="#323143"><path d="m372.624 491c-64.528 0-103.888-35.215-108.168-39.232-14.008-13.152-17.008-34.362-7.216-50.943l27.88-47.184c-10.696-14.006-18.824-32.672-18.992-57.463-3.744 1.143-7.704 1.754-11.816 1.754h-71.88c-14.832 0-27.816-7.992-34.928-19.937-7.112 11.945-20.088 19.937-34.928 19.937h-71.872c-22.48 0-40.704-18.352-40.704-40.986v-209.826c0-22.642 18.224-40.995 40.704-40.995h71.872c5.76 0 11.232 1.208 16.192 3.373 14.376-6.23 29.368-9.498 44.32-9.498 28.584 0 54.456 7.848 74.888 22.055 20.848-14.4 43.696-22.055 66.848-22.055 60.68 0 121.912 36.704 121.912 118.693v72.177c28.512 5.747 47.648 15.905 50.464 17.467 19.192 10.585 26.64 34.563 16.848 54.276l-21.68 43.674c19.704 18.884 29.632 42.991 29.632 72.153 0 33.839-13.584 112.56-139.376 112.56"/><path d="m407.952 311.358c-17.872-5.723-32.48-8.999-32.48-20.034 0-9.812 6.488-12.677 22.328-12.677 21.92 0 46.288 13.087 46.288 13.087l23.56-47.457s-29.64-16.348-69.848-16.348c-.6 0-1.168.016-1.76.024v-109.26c0-58.485-43.04-77.699-81.224-77.699-22.736 0-47.104 11.857-69.032 38.443-14.624-28.228-45.08-38.443-72.696-38.443-22.744 0-43.448 11.857-59.696 28.221h-.816v-22.095h-71.872v209.826h71.872v-122.71c0-16.766 9.344-35.167 33.304-35.167 25.584 0 36.552 18.401 36.552 39.264v118.613h71.88v-125.165c.816-15.945 10.56-32.712 33.296-32.712 25.584 0 36.552 18.401 36.552 39.264v113.671c-11.136 11.035-17.336 25.644-17.336 43.409 0 31.496 21.128 46.218 42.24 57.262 23.56 12.259 46.296 13.49 46.296 28.631 0 13.901-12.184 15.124-22.32 15.124-23.16 0-51.584-24.123-51.584-24.123l-29.24 49.478s30.048 28.221 80.408 28.221c42.632 0 98.68-9.804 98.68-71.566 0-42.942-35.744-58.485-63.352-67.082"/><path d="m264.488 435.791c-37.72 0-68.408-30.909-68.408-68.901 0-38 30.688-68.917 68.408-68.917 37.728 0 68.424 30.917 68.424 68.917 0 37.992-30.696 68.901-68.424 68.901"/><path d="m264.488 338.967c-15.296 0-27.712 12.5-27.712 27.923 0 15.406 12.416 27.914 27.712 27.914 15.32 0 27.728-12.508 27.728-27.914 0-15.423-12.408-27.923-27.728-27.923"/></g><path d="m40.704 47.12h71.872v22.087h.816c16.248-16.356 36.952-28.213 59.696-28.213 27.616 0 58.072 10.215 72.696 38.443 21.928-26.586 46.296-38.443 69.04-38.443 38.176 0 81.216 19.214 81.216 77.699v138.253h-71.872v-118.613c0-20.863-10.976-39.264-36.56-39.264-22.736 0-32.48 16.767-33.296 32.712v125.165h-71.88v-118.613c0-20.863-10.968-39.264-36.552-39.264-23.96 0-33.304 18.401-33.304 35.167v122.71h-71.872z" fill="#fff"/></g><path d="m14.608 67.484c0 31.497 21.136 46.219 42.248 57.262 23.552 12.267 46.296 13.491 46.296 28.631 0 13.901-12.192 15.125-22.328 15.125-23.16 0-51.584-24.124-51.584-24.124l-29.24 49.487s30.048 28.22 80.408 28.22c42.64 0 98.68-9.812 98.68-71.573 0-42.943-35.744-58.486-63.352-67.074-17.872-5.731-32.48-9.007-32.48-20.043 0-9.812 6.488-12.677 22.328-12.677 21.928 0 46.296 13.088 46.296 13.088l23.56-47.45s-29.648-16.356-69.856-16.356c-54.832 0-90.976 24.542-90.976 67.484" fill="url(#b)" transform="translate(292.212 238.927)"/><path d="m0 27.923c0 15.406 12.408 27.914 27.712 27.914 15.32 0 27.72-12.508 27.72-27.914 0-15.415-12.4-27.923-27.72-27.923-15.304 0-27.712 12.508-27.712 27.923" fill="url(#c)" transform="translate(236.778 349.966)"/></svg>